<mxfile host="app.diagrams.net" agent="Mozilla/5.0 (Windows NT 10.0; Win64; x64; rv:109.0) Gecko/20100101 Firefox/115.0" version="24.8.8">
  <diagram name="PÃ¡gina-1" id="ibuHp5V1Cp7XMNr0ZRXf">
    <mxGraphModel dx="1050" dy="517" grid="1" gridSize="10" guides="1" tooltips="1" connect="1" arrows="1" fold="1" page="1" pageScale="1" pageWidth="827" pageHeight="1169" math="0" shadow="0">
      <root>
        <mxCell id="0" />
        <mxCell id="1" parent="0" />
        <mxCell id="SMJbPce2tfqyu7a8i6BX-23" style="edgeStyle=orthogonalEdgeStyle;rounded=0;orthogonalLoop=1;jettySize=auto;html=1;" edge="1" parent="1" source="SMJbPce2tfqyu7a8i6BX-1" target="SMJbPce2tfqyu7a8i6BX-7">
          <mxGeometry relative="1" as="geometry" />
        </mxCell>
        <mxCell id="SMJbPce2tfqyu7a8i6BX-1" value="clientes" style="swimlane;fontStyle=1;align=center;verticalAlign=top;childLayout=stackLayout;horizontal=1;startSize=26;horizontalStack=0;resizeParent=1;resizeParentMax=0;resizeLast=0;collapsible=1;marginBottom=0;whiteSpace=wrap;html=1;" vertex="1" parent="1">
          <mxGeometry x="180" y="20" width="160" height="170" as="geometry" />
        </mxCell>
        <mxCell id="SMJbPce2tfqyu7a8i6BX-2" value="&lt;div&gt;nome&lt;/div&gt;&lt;div&gt;telefone&lt;/div&gt;&lt;div&gt;email&lt;/div&gt;&lt;div&gt;senha&lt;/div&gt;&lt;div&gt;codcliente&lt;br&gt;&lt;/div&gt;" style="text;strokeColor=none;fillColor=none;align=left;verticalAlign=top;spacingLeft=4;spacingRight=4;overflow=hidden;rotatable=0;points=[[0,0.5],[1,0.5]];portConstraint=eastwest;whiteSpace=wrap;html=1;" vertex="1" parent="SMJbPce2tfqyu7a8i6BX-1">
          <mxGeometry y="26" width="160" height="84" as="geometry" />
        </mxCell>
        <mxCell id="SMJbPce2tfqyu7a8i6BX-3" value="" style="line;strokeWidth=1;fillColor=none;align=left;verticalAlign=middle;spacingTop=-1;spacingLeft=3;spacingRight=3;rotatable=0;labelPosition=right;points=[];portConstraint=eastwest;strokeColor=inherit;" vertex="1" parent="SMJbPce2tfqyu7a8i6BX-1">
          <mxGeometry y="110" width="160" height="8" as="geometry" />
        </mxCell>
        <mxCell id="SMJbPce2tfqyu7a8i6BX-4" value="&lt;div&gt;excluir&lt;/div&gt;&lt;div&gt;cadastrar&lt;/div&gt;&lt;div&gt;alterar&lt;br&gt;&lt;/div&gt;" style="text;strokeColor=none;fillColor=none;align=left;verticalAlign=top;spacingLeft=4;spacingRight=4;overflow=hidden;rotatable=0;points=[[0,0.5],[1,0.5]];portConstraint=eastwest;whiteSpace=wrap;html=1;" vertex="1" parent="SMJbPce2tfqyu7a8i6BX-1">
          <mxGeometry y="118" width="160" height="52" as="geometry" />
        </mxCell>
        <mxCell id="SMJbPce2tfqyu7a8i6BX-25" style="edgeStyle=orthogonalEdgeStyle;rounded=0;orthogonalLoop=1;jettySize=auto;html=1;" edge="1" parent="1" source="SMJbPce2tfqyu7a8i6BX-6" target="SMJbPce2tfqyu7a8i6BX-14">
          <mxGeometry relative="1" as="geometry" />
        </mxCell>
        <mxCell id="SMJbPce2tfqyu7a8i6BX-6" value="agendamento" style="swimlane;fontStyle=1;align=center;verticalAlign=top;childLayout=stackLayout;horizontal=1;startSize=26;horizontalStack=0;resizeParent=1;resizeParentMax=0;resizeLast=0;collapsible=1;marginBottom=0;whiteSpace=wrap;html=1;" vertex="1" parent="1">
          <mxGeometry x="495" y="10" width="170" height="258" as="geometry" />
        </mxCell>
        <mxCell id="SMJbPce2tfqyu7a8i6BX-7" value="&lt;div&gt;codcliente&lt;/div&gt;&lt;div&gt;codagenda&lt;/div&gt;&lt;div&gt;hora&lt;/div&gt;&lt;div&gt;codprofissonal&lt;/div&gt;&lt;div&gt;codservico&lt;/div&gt;&lt;div&gt;data&lt;/div&gt;&lt;div&gt;preco&lt;/div&gt;&lt;div&gt;servico&lt;br&gt;&lt;/div&gt;" style="text;strokeColor=none;fillColor=none;align=left;verticalAlign=top;spacingLeft=4;spacingRight=4;overflow=hidden;rotatable=0;points=[[0,0.5],[1,0.5]];portConstraint=eastwest;whiteSpace=wrap;html=1;" vertex="1" parent="SMJbPce2tfqyu7a8i6BX-6">
          <mxGeometry y="26" width="170" height="134" as="geometry" />
        </mxCell>
        <mxCell id="SMJbPce2tfqyu7a8i6BX-8" value="" style="line;strokeWidth=1;fillColor=none;align=left;verticalAlign=middle;spacingTop=-1;spacingLeft=3;spacingRight=3;rotatable=0;labelPosition=right;points=[];portConstraint=eastwest;strokeColor=inherit;" vertex="1" parent="SMJbPce2tfqyu7a8i6BX-6">
          <mxGeometry y="160" width="170" height="8" as="geometry" />
        </mxCell>
        <mxCell id="SMJbPce2tfqyu7a8i6BX-9" value="&lt;div&gt;agendar agendamento&lt;/div&gt;&lt;div&gt;editar agendamento&lt;/div&gt;&lt;div&gt;cancelar agendamento&lt;/div&gt;&lt;div&gt;excluir agendamento&lt;/div&gt;&lt;div&gt;consultar agendamento&lt;br&gt;&lt;/div&gt;&lt;div&gt;&lt;br&gt;&lt;/div&gt;" style="text;strokeColor=none;fillColor=none;align=left;verticalAlign=top;spacingLeft=4;spacingRight=4;overflow=hidden;rotatable=0;points=[[0,0.5],[1,0.5]];portConstraint=eastwest;whiteSpace=wrap;html=1;" vertex="1" parent="SMJbPce2tfqyu7a8i6BX-6">
          <mxGeometry y="168" width="170" height="90" as="geometry" />
        </mxCell>
        <mxCell id="SMJbPce2tfqyu7a8i6BX-10" value="profissional" style="swimlane;fontStyle=1;align=center;verticalAlign=top;childLayout=stackLayout;horizontal=1;startSize=26;horizontalStack=0;resizeParent=1;resizeParentMax=0;resizeLast=0;collapsible=1;marginBottom=0;whiteSpace=wrap;html=1;" vertex="1" parent="1">
          <mxGeometry x="80" y="200" width="160" height="158" as="geometry" />
        </mxCell>
        <mxCell id="SMJbPce2tfqyu7a8i6BX-11" value="&lt;div&gt;ativo&lt;/div&gt;&lt;div&gt;imagem&lt;/div&gt;&lt;div&gt;atributo&lt;br&gt;&lt;/div&gt;" style="text;strokeColor=none;fillColor=none;align=left;verticalAlign=top;spacingLeft=4;spacingRight=4;overflow=hidden;rotatable=0;points=[[0,0.5],[1,0.5]];portConstraint=eastwest;whiteSpace=wrap;html=1;" vertex="1" parent="SMJbPce2tfqyu7a8i6BX-10">
          <mxGeometry y="26" width="160" height="54" as="geometry" />
        </mxCell>
        <mxCell id="SMJbPce2tfqyu7a8i6BX-12" value="" style="line;strokeWidth=1;fillColor=none;align=left;verticalAlign=middle;spacingTop=-1;spacingLeft=3;spacingRight=3;rotatable=0;labelPosition=right;points=[];portConstraint=eastwest;strokeColor=inherit;" vertex="1" parent="SMJbPce2tfqyu7a8i6BX-10">
          <mxGeometry y="80" width="160" height="8" as="geometry" />
        </mxCell>
        <mxCell id="SMJbPce2tfqyu7a8i6BX-13" value="&lt;div&gt;cadastrar profissional&lt;/div&gt;&lt;div&gt;alterar profissional&lt;/div&gt;&lt;div&gt;excluir profissional&lt;br&gt;&lt;/div&gt;" style="text;strokeColor=none;fillColor=none;align=left;verticalAlign=top;spacingLeft=4;spacingRight=4;overflow=hidden;rotatable=0;points=[[0,0.5],[1,0.5]];portConstraint=eastwest;whiteSpace=wrap;html=1;" vertex="1" parent="SMJbPce2tfqyu7a8i6BX-10">
          <mxGeometry y="88" width="160" height="70" as="geometry" />
        </mxCell>
        <mxCell id="SMJbPce2tfqyu7a8i6BX-26" style="edgeStyle=orthogonalEdgeStyle;rounded=0;orthogonalLoop=1;jettySize=auto;html=1;" edge="1" parent="1" source="SMJbPce2tfqyu7a8i6BX-14" target="SMJbPce2tfqyu7a8i6BX-13">
          <mxGeometry relative="1" as="geometry" />
        </mxCell>
        <mxCell id="SMJbPce2tfqyu7a8i6BX-14" value="servico" style="swimlane;fontStyle=1;align=center;verticalAlign=top;childLayout=stackLayout;horizontal=1;startSize=26;horizontalStack=0;resizeParent=1;resizeParentMax=0;resizeLast=0;collapsible=1;marginBottom=0;whiteSpace=wrap;html=1;" vertex="1" parent="1">
          <mxGeometry x="280" y="210" width="160" height="196" as="geometry" />
        </mxCell>
        <mxCell id="SMJbPce2tfqyu7a8i6BX-15" value="&lt;div&gt;codservico&lt;/div&gt;&lt;div&gt;nome servico&lt;/div&gt;&lt;div&gt;descricao&lt;/div&gt;&lt;div&gt;preco&lt;/div&gt;&lt;div&gt;duracao&lt;br&gt;&lt;/div&gt;&lt;div&gt;&lt;br&gt;&lt;/div&gt;" style="text;strokeColor=none;fillColor=none;align=left;verticalAlign=top;spacingLeft=4;spacingRight=4;overflow=hidden;rotatable=0;points=[[0,0.5],[1,0.5]];portConstraint=eastwest;whiteSpace=wrap;html=1;" vertex="1" parent="SMJbPce2tfqyu7a8i6BX-14">
          <mxGeometry y="26" width="160" height="90" as="geometry" />
        </mxCell>
        <mxCell id="SMJbPce2tfqyu7a8i6BX-16" value="" style="line;strokeWidth=1;fillColor=none;align=left;verticalAlign=middle;spacingTop=-1;spacingLeft=3;spacingRight=3;rotatable=0;labelPosition=right;points=[];portConstraint=eastwest;strokeColor=inherit;" vertex="1" parent="SMJbPce2tfqyu7a8i6BX-14">
          <mxGeometry y="116" width="160" height="8" as="geometry" />
        </mxCell>
        <mxCell id="SMJbPce2tfqyu7a8i6BX-17" value="&lt;div&gt;cadastrar servico&lt;/div&gt;&lt;div&gt;tipo de servico&lt;/div&gt;&lt;div&gt;excluir servico&lt;/div&gt;&lt;div&gt;editar servico&lt;br&gt;&lt;/div&gt;" style="text;strokeColor=none;fillColor=none;align=left;verticalAlign=top;spacingLeft=4;spacingRight=4;overflow=hidden;rotatable=0;points=[[0,0.5],[1,0.5]];portConstraint=eastwest;whiteSpace=wrap;html=1;" vertex="1" parent="SMJbPce2tfqyu7a8i6BX-14">
          <mxGeometry y="124" width="160" height="72" as="geometry" />
        </mxCell>
      </root>
    </mxGraphModel>
  </diagram>
</mxfile>
